<?xml version="1.0" encoding="UTF-8"?><svg xmlns="http://www.w3.org/2000/svg" xmlns:xlink="http://www.w3.org/1999/xlink" width="375" zoomAndPan="magnify" viewBox="0 0 375 374.999991" height="374.999991" preserveAspectRatio="xMidYMid meet" version="1.0"><defs><clipPath id="clip-0"><path d="M 155.546875 88.59375 L 296.5625 88.59375 L 296.5625 216.09375 L 155.546875 216.09375 Z M 155.546875 88.59375 " clip-rule="nonzero"/></clipPath></defs><path fill="rgb(100%, 100%, 100%)" d="M 149.335938 175.15625 C 120.078125 162.539062 102.109375 178.984375 102.109375 178.984375 C 102.109375 178.984375 108.359375 186.640625 134.609375 185.78125 C 161.601562 184.921875 155.742188 208.4375 155.742188 208.4375 C 160.273438 202.226562 168.867188 183.59375 149.335938 175.15625 Z M 253.867188 132.421875 C 237.773438 129.6875 233.007812 134.53125 233.007812 134.53125 C 233.007812 134.53125 246.71875 139.21875 254.296875 143.4375 C 254.296875 143.4375 273.671875 144.453125 276.445312 127.460938 C 276.445312 127.460938 271.796875 135.46875 253.867188 132.421875 Z M 205.3125 147.851562 C 193.515625 142.734375 180.664062 142.304688 180.664062 142.304688 C 180.664062 142.304688 181.5625 142.1875 192.03125 142.617188 C 202.539062 143.046875 205.3125 138.515625 205.3125 138.515625 C 205.3125 138.515625 189.101562 136.09375 174.296875 136.484375 C 152.460938 137.03125 137.070312 143.867188 139.570312 151.25 C 142.03125 158.59375 163.828125 158.164062 163.828125 158.164062 L 163.632812 152.65625 C 163.632812 152.65625 165.9375 159.179688 170.898438 157.617188 C 175.859375 156.054688 171.5625 150.703125 171.5625 150.703125 C 176.09375 148.710938 181.5625 150.546875 179.648438 156.757812 C 177.773438 163.007812 160.859375 161.5625 160.859375 161.5625 C 160.859375 161.5625 164.21875 163.554688 176.015625 163.125 C 187.8125 162.695312 193.085938 154.0625 193.085938 154.0625 C 200.351562 150.546875 222.8125 159.609375 222.8125 159.609375 C 222.8125 159.609375 217.109375 152.929688 205.3125 147.851562 Z M 249.335938 120.234375 L 251.25 115.429688 C 251.25 115.429688 232.421875 123.632812 218.867188 123.632812 C 218.867188 123.632812 226.445312 120.390625 229.0625 112.734375 C 229.0625 112.734375 206.328125 120.664062 184.335938 120.507812 C 162.304688 120.390625 149.023438 124.609375 149.023438 124.609375 L 150.078125 116.835938 C 150.078125 116.835938 123.242188 126.328125 114.921875 140.195312 C 114.921875 140.195312 135.195312 126.054688 167.265625 127.890625 C 199.335938 129.726562 213.632812 131.835938 222.070312 132.421875 C 230.546875 132.96875 247.460938 125.039062 249.335938 120.234375 Z M 174.609375 176.601562 C 176.5625 187.34375 167.8125 190.351562 167.8125 190.351562 C 168.398438 181.132812 157.03125 175.46875 148.398438 171.367188 C 134.960938 165 125.15625 166.015625 109.804688 170 C 94.453125 173.945312 89.453125 195.273438 89.453125 195.273438 C 84.804688 189.414062 79.726562 171.875 87.695312 155.820312 C 95.664062 139.765625 119.804688 145.820312 119.804688 145.820312 C 86.5625 144.296875 87.695312 165.273438 87.695312 165.273438 C 94.726562 146.015625 126.40625 149.960938 126.40625 149.960938 C 127.773438 161.09375 138.4375 162.382812 153.007812 164.257812 C 167.578125 166.171875 174.609375 176.601562 174.609375 176.601562 " fill-opacity="1" fill-rule="nonzero"/><g clip-path="url(#clip-0)"><path fill="rgb(93.728638%, 18.818665%, 26.669312%)" d="M 214.453125 108.554688 L 221.132812 103.828125 L 227.8125 108.554688 L 225.234375 100.9375 L 231.914062 96.210938 L 223.671875 96.210938 L 221.132812 88.59375 L 218.59375 96.210938 L 210.3125 96.210938 L 216.992188 100.9375 Z M 187.1875 112.929688 L 193.867188 108.242188 L 200.546875 112.929688 L 198.007812 105.3125 L 204.6875 100.625 L 196.445312 100.625 L 193.867188 93.007812 L 191.328125 100.625 L 183.085938 100.625 L 189.765625 105.3125 Z M 166.640625 112.617188 L 173.320312 117.34375 L 170.78125 109.726562 L 177.421875 105 L 169.179688 105 L 166.640625 97.382812 L 164.101562 105 L 155.859375 105 L 162.5 109.726562 L 159.960938 117.34375 Z M 178.476562 213.125 C 178.476562 213.125 220.195312 209.570312 261.289062 216.09375 L 274.179688 193.046875 C 274.179688 193.046875 230.351562 195.390625 211.289062 200.078125 C 192.226562 204.804688 178.476562 213.125 178.476562 213.125 Z M 233.59375 178.984375 C 202.070312 184.023438 169.726562 208.4375 169.726562 208.4375 C 169.726562 208.4375 211.601562 195.351562 233.28125 191.71875 C 257.1875 187.734375 276.445312 189.0625 276.445312 189.0625 L 284.335938 175.15625 C 267.421875 175.15625 259.140625 174.921875 233.59375 178.984375 Z M 296.5625 152.5 L 287.265625 170 C 287.265625 170 248.75 169.921875 222.8125 175.46875 C 199.296875 180.507812 161.875 205.46875 161.875 205.46875 C 161.875 205.46875 184.921875 172.617188 219.023438 164.960938 C 253.125 157.34375 280.546875 159.296875 296.5625 152.5 " fill-opacity="1" fill-rule="nonzero"/></g></svg>